<svg height="511pt" viewBox="0 -19 511.99966 511" width="511pt" xmlns="http://www.w3.org/2000/svg"><path d="m509.933594 244.507812-35.453125-78.710937c-3.089844-6.855469-4.933594-14.058594-5.484375-21.410156-2.933594-39.058594-20.382813-75.328125-49.132813-102.121094-28.894531-26.933594-66.574219-41.765625-106.09375-41.765625-20.066406 0-39.609375 3.785156-57.84375 11.09375-17.851562-7.152344-37.316406-11.09375-57.691406-11.09375-39.519531 0-77.199219 14.832031-106.097656 41.765625-28.746094 26.792969-46.195313 63.0625-49.128907 102.121094-.554687 7.355469-2.398437 14.554687-5.484374 21.410156l-35.457032 78.710937c-3.261718 7.242188-2.632812 15.546876 1.679688 22.21875 4.308594 6.667969 11.621094 10.648438 19.5625 10.648438h11.828125v62.042969c0 24.421875 19.863281 44.289062 44.28125 44.289062h36.226562v77.964844c0 3.664063 1.808594 7.078125 4.832031 9.144531 1.863282 1.269532 4.039063 1.921875 6.230469 1.921875 1.363281 0 2.738281-.253906 4.046875-.769531l125.246094-49.238281 56.027344 22.027343c.902344.351563 1.832031.519532 2.742187.519532 2.996094 0 5.820313-1.800782 6.984375-4.757813 1.515625-3.851562-.382812-8.207031-4.238281-9.722656l-41.015625-16.125 8.957031-3.519531c5.015625-1.972656 8.265625-6.726563 8.285157-12.109375l.082031-23.804688c.179687-49.679687 13.34375-97.714843 38.066406-138.90625 14.398437-23.992187 22.011719-51.695312 22.011719-80.117187 0-57.898438-31.757813-108.511719-78.757813-135.339844 12.441407-3.542969 25.402344-5.375 38.625-5.375 35.710938 0 69.753907 13.402344 95.867188 37.738281 25.980469 24.214844 41.75 56.984375 44.398437 92.273438.683594 9.097656 2.960938 17.996093 6.765625 26.445312l35.453125 78.710938c1.179688 2.617187.960938 5.503906-.597656 7.914062-1.558594 2.410157-4.09375 3.792969-6.964844 3.792969h-15.839844c-6.058593 0-10.992187 4.929688-10.992187 10.992188v66.050781c0 16.148437-13.132813 29.289062-29.277344 29.289062h-43.726562c-4.144531 0-7.5 3.355469-7.5 7.5v79.6875l-36.195313-14.230469c-3.855468-1.511718-8.207031.382813-9.726562 4.238282-1.515625 3.855468.382812 8.207031 4.238281 9.722656l41.574219 16.347656c1.308594.511719 2.679687.765625 4.046875.765625 2.191406 0 4.363281-.652343 6.230469-1.921875 3.023437-2.0625 4.832031-5.480468 4.832031-9.144531v-77.964844h36.226562c24.417969 0 44.277344-19.867187 44.277344-44.289062v-62.042969h11.832031c7.9375 0 15.253906-3.980469 19.5625-10.648438 4.3125-6.671874 4.941406-14.976562 1.679688-22.21875zm-171.03125-88.292968c0 25.703125-6.875 50.734375-19.875 72.394531-26.109375 43.511719-40.015625 94.195313-40.203125 146.578125l-.078125 22.484375-22.746094 8.941406-22.746094-8.941406-.078125-22.488281c-.1875-52.378906-14.089843-103.0625-40.203125-146.574219-13-21.660156-19.875-46.691406-19.875-72.394531 0-35.707032 13.390625-69.753906 37.699219-95.871094 2.824219-3.03125 2.652344-7.777344-.378906-10.601562-3.03125-2.824219-7.777344-2.652344-10.597657.378906-26.90625 28.902344-41.722656 66.582031-41.722656 106.09375 0 28.421875 7.613282 56.125 22.011719 80.117187 24.726563 41.191407 37.886719 89.226563 38.066406 138.90625l.082031 23.800781c.019532 5.390626 3.273438 10.140626 8.28125 12.113282l8.960938 3.519531-104.855469 41.222656v-79.6875c0-4.144531-3.359375-7.5-7.5-7.5h-43.726562c-16.144531 0-29.28125-13.140625-29.28125-29.289062v-66.050781c0-6.0625-4.929688-10.992188-10.988281-10.992188h-15.839844c-2.871094 0-5.40625-1.382812-6.964844-3.792969-1.558594-2.414062-1.777344-5.296875-.597656-7.917969l35.453125-78.710937c3.804687-8.449219 6.082031-17.34375 6.765625-26.441406 2.648437-35.289063 18.417968-68.058594 44.398437-92.273438 26.109375-24.335937 60.15625-37.738281 95.867188-37.738281 13.351562 0 26.269531 1.871094 38.515625 5.359375-4.457032 2.546875-8.808594 5.324219-13.039063 8.328125-3.375 2.398438-4.167969 7.082031-1.769531 10.460938 2.398438 3.375 7.082031 4.167968 10.457031 1.765624 7.460938-5.296874 15.335938-9.816406 23.539063-13.523437 48.871094 22.074219 82.96875 71.289063 82.96875 128.324219zm0 0"/><path d="m184.785156 152.375c0 39.277344 31.949219 71.230469 71.214844 71.230469 39.269531 0 71.214844-31.953125 71.214844-71.230469s-31.945313-71.230469-71.214844-71.230469c-39.265625 0-71.214844 31.953125-71.214844 71.230469zm71.214844-56.230469c30.996094 0 56.214844 25.222657 56.214844 56.230469 0 31.003906-25.21875 56.230469-56.214844 56.230469s-56.214844-25.226563-56.214844-56.230469c0-31.007812 25.21875-56.230469 56.214844-56.230469zm0 0"/><path d="m256 159.875c4.511719 0 8.179688 3.671875 8.179688 8.183594 0 4.511718-3.667969 8.183594-8.179688 8.183594-2.710938 0-5.242188-1.34375-6.773438-3.59375-2.328124-3.425782-6.992187-4.316407-10.417968-1.988282-3.425782 2.324219-4.316406 6.988282-1.988282 10.417969 2.867188 4.21875 6.988282 7.304687 11.679688 8.910156v2.816407c0 4.140624 3.359375 7.5 7.5 7.5 4.144531 0 7.5-3.359376 7.5-7.5v-2.8125c9.113281-3.128907 15.679688-11.773438 15.679688-21.933594 0-12.78125-10.394532-23.183594-23.179688-23.183594-4.507812 0-8.179688-3.671875-8.179688-8.183594 0-4.511718 3.671876-8.183594 8.179688-8.183594 2.722656 0 5.257812 1.351563 6.785156 3.613282 2.320313 3.433594 6.980469 4.332031 10.414063 2.019531 3.433593-2.320313 4.335937-6.980469 2.019531-10.414063-2.871094-4.25-7.007812-7.351562-11.71875-8.964843v-2.8125c0-4.144531-3.355469-7.5-7.5-7.5-4.140625 0-7.5 3.355469-7.5 7.5v2.808593c-9.109375 3.128907-15.679688 11.773438-15.679688 21.933594 0 12.78125 10.398438 23.183594 23.179688 23.183594zm0 0"/></svg>