<svg id="outline" height="512" viewBox="0 0 512 512" width="512" xmlns="http://www.w3.org/2000/svg"><path d="m220.12207 206.99707a8.00037 8.00037 0 0 0 8.11816-.21289l64-40a8.00062 8.00062 0 0 0 0-13.56836l-64-40a8.00044 8.00044 0 0 0 -12.24023 6.78418v80a7.99989 7.99989 0 0 0 4.12207 6.99707zm11.87793-72.56348 40.90527 25.56641-40.90527 25.56641z"/><path d="m472 16h-432a24.0275 24.0275 0 0 0 -24 24v352a24.0275 24.0275 0 0 0 24 24h165.24731l-19.19995 64h-26.04736v16h192v-16h-26.04736l-19.19995-64h165.24731a24.0275 24.0275 0 0 0 24-24v-352a24.0275 24.0275 0 0 0 -24-24zm-440 24a8.00917 8.00917 0 0 1 8-8h432a8.00917 8.00917 0 0 1 8 8v288h-448zm277.24805 440h-106.49605l19.20069-64h26.04731v32a8 8 0 0 0 16 0v-32h26.04736zm170.75195-88a8.00917 8.00917 0 0 1 -8 8h-432a8.00917 8.00917 0 0 1 -8-8v-48h448z"/><path d="m56 248h160v16h-160z"/><path d="m240 248h136v16h-136z"/><path d="m56 280h16v32h-16z"/><path d="m88 280h16v32h-16z"/><path d="m144 288h24v16h-24z"/><path d="m184 288h48v16h-48z"/><path d="m400 256v16h16v-8h8v-16h-16a8.00039 8.00039 0 0 0 -8 8z"/><path d="m456 248h-16v16h8v8h16v-16a8.00039 8.00039 0 0 0 -8-8z"/><path d="m448 296h-8v16h16a8.00039 8.00039 0 0 0 8-8v-16h-16z"/><path d="m416 288h-16v16a8.00039 8.00039 0 0 0 8 8h16v-16h-8z"/><path d="m56 56h24v16h-24z"/><path d="m96 56h88v16h-88z"/></svg>